ply
format ascii 1.0
comment Exported by Aspose.3D 25.3.0
element vertex 18
property float x
property float y
property float z
property float nx
property float ny
property float nz
element face 24
property list uchar int vertex_index
end_header
-25.293771743774414 -0.6263753771781921 54.55110168457031 0.23570239544037108 0.3326643190036217 -0.09972301606709758
-125.00103759765625 0 154.25653076171875 0.17677628994079772 0.25309466355247423 0.5287506171735004
-224.7082977294922 -0.6263753771781921 54.55110168457031 -0.28284244537288594 0.1990011479239911 -0.11840955903753639
-25.293771743774414 -1.0384706258773804 54.553897857666016 0.28284244537345055 -0.20098987920209765 -0.11589648360386491
-125.00103759765625 -0.411994606256485 154.2587432861328 -0.17677679657936096 -0.24689532566117123 0.5318924532039091
-224.7082977294922 -1.0384706258773804 54.553897857666016 -0.2357017199199816 -0.33398899994790554 -0.09553390135988593
-124.70726776123047 -0.4101274311542511 154.554931640625 -0.17691998872032855 0.25332569994498044 0.5286054412135854
-124.99856567382812 -141.4165802001953 155.149169921875 -0.4054162800312042 -0.1764487037435174 0.05279996246099472
-124.99856567382812 -0.4118437170982361 154.26319885253906 -0.3537298774244846 0.499988985597156 -0.0033187285298481584
-124.70726776123047 -141.41453552246094 155.44065856933594 0.2501564919948578 -0.35289534262847155 0.10592915862798691
-25.29129409790039 -1.0385586023330688 54.55801773071289 0.07334660329070175 -0.10623205697629601 -0.4259950111154467
-25 -1.0365091562271118 54.84950637817383 0.3018428946015774 0.32354234671220183 0.04981046763714403
-225 -1.0363582372665405 54.85750961303711 -0.3413012815581169 0.1167859997600317 -0.05943317515775562
-125.29273986816406 -0.4099765419960022 154.56292724609375 0.00020417318834612766 0.3362873435641328 0.46909666433930397
-125.29273986816406 -141.41470336914062 155.4488983154297 0.051950447261333466 -0.17422731476835907 0.4062586948275566
-125.00144958496094 -0.4120197594165802 154.2714385986328 0.42448627818957907 0.400879236124456 0.1386836458928883
-125.00144958496094 -141.41619873046875 155.15750122070312 0.10355537384748459 -0.35511734802275896 -0.24777504056692123
-224.70870971679688 -1.038401484489441 54.56601333618164 0.06901070511473031 0.09510061269005139 -0.4029482756741345
3 0 1 2
3 1 0 3
3 1 4 2
3 3 0 2
3 3 2 5
3 2 4 5
3 4 3 5
3 1 3 4
3 6 7 8
3 6 9 7
3 7 10 8
3 6 8 11
3 10 11 8
3 11 9 6
3 11 10 9
3 7 9 10
3 12 13 14
3 13 12 15
3 15 14 13
3 14 16 12
3 15 16 14
3 17 12 16
3 17 15 12
3 15 17 16
